# xmcd
#
# Track frame offsets:
#	150
#	14203
#	25800
#	38071
#	50840
#	64946
#	79035
#	93023
#	106405
#	119511
#	133891
#	146672
#	159096
#	171748
#	185147
#	198374
#	212280
#	226096
#	240604
#	253132
#	268121
#	280158
#
# Disc length: 3918 seconds
#
# Revision: 1
# Processed by: cddbd v1.5.2PL0 Copyright (c) Steve Scherf et al.
# Submitted via: audiograbber 1.83.01
#
DISCID=440f4c16
DTITLE=Ma Rainey - Vol 1 1923 - 1924
DYEAR=1997
DGENRE=Blues
TTITLE0=Bad Luck Blues
TTITLE1=Bo-Weavil Blues (take 1)
TTITLE2=Bo-Weavil Blues (take 2)
TTITLE3=Barrel House Blues
TTITLE4=Those All Night Long Blues (take 1)
TTITLE5=Those All Night Long Blues (take 2)
TTITLE6=Moonshine Blues
TTITLE7=Last Minute Blues
TTITLE8=Southern Blues
TTITLE9=Walking Blues
TTITLE10=Lost Wandering Blues
TTITLE11=Dream Blues
TTITLE12=Honey Where You Been So Long
TTITLE13=Ya-Da-Do (take 2)
TTITLE14=Ya-Da-Do (take 3)
TTITLE15=Those Dogs Of Mine ( Famous Cornfield Blues )
TTITLE16=Lucky Rock Blues
TTITLE17=South Bound Blues
TTITLE18=Lawd Send Me A Man Blues
TTITLE19=Ma Rainey's Mystery Record
TTITLE20=Shave 'Em Dry Blues
TTITLE21=Farewell Daddy Blues
EXTD=
EXTT0=
EXTT1=
EXTT2=
EXTT3=
EXTT4=
EXTT5=
EXTT6=
EXTT7=
EXTT8=
EXTT9=
EXTT10=
EXTT11=
EXTT12=
EXTT13=
EXTT14=
EXTT15=
EXTT16=
EXTT17=
EXTT18=
EXTT19=
EXTT20=
EXTT21=
PLAYORDER=
